:SAMPLES-PER-SECOND 30
:FULLY-SPECIFIED
:DEGREES
234
root  1.32727 39.3325 -12.4142 -36.7222 86.4101 -33.7555
RightUpLeg  6.47361 -14.8883 -1.44624
RightLeg  19.1408 -3.45857 1.04041
RightFoot  -19.3774 -0.236231 -1.48578
RightToes  0.00048216 0.542163 -0.142577
Spine  13.9828 1.06867 10.9811
Spine1  12.9001 4.50486 -6.98586
HEad  31.9123 24.2305 -4.63587
LeftShoulder1  6.88715 -10.3879 -43.0991
LeftArm  -16.7098 27.9559 -29.6705
LeftForeArm  16.7136 -10.7705 -3.27708
LeftHand  -0.25398 0.0180481 5.50724
RightShoulder  5.17314 9.24377 34.627
RightArm  0.981828 8.98096 30.9557
RightForeArm  9.31277 37.3361 7.89605
RightHand  -0.708495 0.0706068 -15.0459
LeftUpLeg  -22.714 9.96397 0.866152
LeftLeg  8.43645 10.1376 -1.11234
LeftFoot  -0.356623 0.662205 -6.85542
LeftToes  1.06243e-005 4.65856e-005 -8.18503e-006
235
root  0.320563 39.6804 -12.3869 -22.0103 86.9747 -19.969
RightUpLeg  4.60486 -12.569 -1.80576
RightLeg  17.1368 -5.90824 1.90726
RightFoot  -17.4115 -0.210001 -1.7172
RightToes  0.00048216 0.542163 -0.142577
Spine  13.065 1.44963 9.59627
Spine1  12.0893 4.58736 -6.97981
HEad  31.6508 20.4013 -3.8439
LeftShoulder1  7.18256 -10.9858 -43.0955
LeftArm  -15.9776 25.932 -27.7529
LeftForeArm  18.5499 -10.9968 -3.37773
LeftHand  -0.25398 0.0180481 5.50724
RightShoulder  5.27883 9.41097 34.9147
RightArm  1.67083 7.31095 33.4433
RightForeArm  5.16766 24.3671 5.56185
RightHand  -0.601527 -0.246667 -13.5601
LeftUpLeg  -23.5429 11.0793 -1.19182
LeftLeg  15.9046 4.43188 2.01138
LeftFoot  -1.85608 0.5055 -5.94898
LeftToes  1.06243e-005 4.65856e-005 -8.18503e-006
236
root  -0.606489 39.9295 -12.4472 -4.82642 86.775 -3.7704
RightUpLeg  2.66609 -10.9461 -2.36221
RightLeg  15.576 -6.77138 2.70173
RightFoot  -16.1474 -0.152479 -1.02863
RightToes  0.00048216 0.542163 -0.142577
Spine  12.1982 1.70657 9.15646
Spine1  11.362 4.96592 -7.7038
HEad  30.2158 17.7315 -3.78073
LeftShoulder1  7.46288 -11.4469 -43.4189
LeftArm  -15.2674 24.1225 -25.7957
LeftForeArm  19.8408 -12.3647 -3.50544
LeftHand  -0.25398 0.0180481 5.50724
RightShoulder  5.46878 9.70861 35.4213
RightArm  -4.6106 4.74213 34.874
RightForeArm  5.24597 12.6368 6.48128
RightHand  -0.528974 -0.745674 -13.1392
LeftUpLeg  -23.0116 6.26576 0.196653
LeftLeg  22.9584 6.58555 3.39164
LeftFoot  -3.36771 0.367858 -4.99704
LeftToes  1.06243e-005 4.65856e-005 -8.18503e-006
237
root  -1.45369 40.078 -12.5634 2.21725 86.5275 2.41237
RightUpLeg  0.698787 -10.3385 -2.67689
RightLeg  14.7858 -6.95103 3.24401
RightFoot  -15.3443 -0.102053 0.047752
RightToes  0.00048216 0.542163 -0.142577
Spine  11.189 1.82297 9.34104
Spine1  11.1107 5.25532 -8.20886
HEad  28.2072 15.6813 -4.00965
LeftShoulder1  7.57841 -11.5821 -43.7127
LeftArm  -15.1762 21.9433 -24.7538
LeftForeArm  19.8514 -13.9385 -3.53355
LeftHand  -0.25398 0.0180481 5.50724
RightShoulder  5.68463 9.97955 36.1753
RightArm  -11.9297 1.15172 35.145
RightForeArm  7.0283 4.64418 6.26808
RightHand  -0.459848 -1.44693 -13.3274
LeftUpLeg  -21.7295 3.57405 1.01566
LeftLeg  29.2779 8.02365 5.17037
LeftFoot  -4.81261 0.2858 -4.51225
LeftToes  1.06243e-005 4.65856e-005 -8.18503e-006
238
root  -2.22575 40.1429 -12.7121 1.2836 86.8314 0.630217
RightUpLeg  -1.18971 -10.0419 -2.59761
RightLeg  14.3192 -7.51995 3.58203
RightFoot  -14.839 -0.0543801 1.51042
RightToes  0.00048216 0.542163 -0.142577
Spine  9.79064 1.72208 9.75328
Spine1  11.2048 5.18002 -8.1893
HEad  26.6686 13.9074 -4.12722
LeftShoulder1  7.47573 -11.3902 -43.6716
LeftArm  -16.5722 19.7628 -24.9961
LeftForeArm  19.312 -15.8739 -3.35916
LeftHand  -0.25398 0.0180481 5.50724
RightShoulder  5.78281 10.0188 36.7634
RightArm  -13.3416 -3.56886 35.1757
RightForeArm  7.10742 1.72637 5.27616
RightHand  -0.388688 -2.17136 -13.6193
LeftUpLeg  -19.636 1.78478 1.61523
LeftLeg  34.181 8.70455 6.64445
LeftFoot  -6.83451 0.197105 -3.91274
LeftToes  1.06243e-005 4.65856e-005 -8.18503e-006
239
root  -2.9492 40.1707 -12.8718 -6.79663 87.6367 -8.26759
RightUpLeg  -2.79179 -9.74364 -2.29981
RightLeg  13.6763 -8.50147 3.80663
RightFoot  -14.4755 -0.00895448 3.2533
RightToes  0.00048216 0.542163 -0.142577
Spine  8.28789 1.35381 9.76923
Spine1  11.149 4.54873 -7.51606
HEad  25.7857 12.59 -4.24684
LeftShoulder1  7.23847 -11.0031 -43.3972
LeftArm  -19.3025 18.4127 -26.0601
LeftForeArm  19.1913 -19.0292 -3.33905
LeftHand  -0.25398 0.0180481 5.50724
RightShoulder  5.72073 9.84439 36.853
RightArm  -12.2354 -9.26636 35.1571
RightForeArm  8.38881 2.69431 5.49844
RightHand  -0.374301 -2.39419 -14.0253
LeftUpLeg  -16.8997 0.949218 1.95356
LeftLeg  37.1727 8.43705 7.15758
LeftFoot  -8.79617 0.113803 -2.79371
LeftToes  1.06243e-005 4.65856e-005 -8.18503e-006
